<?xml version="1.0"?>
<svg xmlns="http://www.w3.org/2000/svg" height="512px" viewBox="0 0 512.00025 512" width="512px" class=""><g><g fill-rule="evenodd"><path d="m273.175781 197.03125c-19.15625 7.003906-32.824219 25.390625-32.824219 46.972656 0 21.578125 13.671876 39.964844 32.824219 46.96875 19.152344-7.003906 32.824219-25.390625 32.824219-46.96875 0-21.582031-13.671875-39.96875-32.824219-46.972656zm0 0" fill="#3b4268" data-original="#3B4268" class="active-path" style="fill:#FEE12B" data-old_color="#3b4268"/><path d="m276 156.238281c-40.078125 9.09375-70 44.933594-70 87.765625 0-27.613281 22.386719-50 50-50s50 22.386719 50 50c0 27.613282-22.386719 50-50 50s-50-22.386718-50-50c0 42.832032 29.921875 78.671875 70 87.765625 40.078125-9.09375 70-44.933593 70-87.765625 0-42.832031-29.921875-78.671875-70-87.765625zm0 0" fill="#0586ad" data-original="#0586AD" class="" style="fill:#333333" data-old_color="#0586ad"/><path d="m502 244.003906c-43.671875-75.5-121.101562-129.027344-211.652344-139.945312-90.546875 10.917968-167.972656 64.445312-211.648437 139.945312 43.667969 75.488282 121.082031 129.011719 211.617187 139.9375 12.914063-1.558594 25.566406-3.972656 37.890625-7.203125l32.726563-56.683593c10.011718-17.289063 32.160156-23.1875 49.453125-13.175782 5.824219 3.375 10.355469 8.125 13.425781 13.605469l2.785156 4.824219 3.035156-5.253906c6.0625-10.46875 16.578126-16.75 27.769532-17.863282 17.238281-17.34375 32.273437-36.878906 44.597656-58.1875zm-246 90c-49.707031 0-90-40.292968-90-90 0-49.707031 40.292969-90 90-90 49.703125 0 90 40.292969 90 90 0 49.707032-40.296875 90-90 90zm0 0" fill="#f9d973" data-original="#F9D973" class="" style="fill:#333333" data-old_color="#f9d973"/><path d="m483.871094 497.039062c17.292968-9.933593 23.257812-32.019531 13.324218-49.308593l-35.75-61.917969-1.066406-1.992188-32.273437-55.902343-4.292969-7.433594c-1.269531-2.269531-2.804688-4.398437-4.5625-6.371094-1.597656 1.796875-3.039062 3.78125-4.292969 5.941407l-32.726562 56.683593-4.089844 7.085938.066406.035156-.066406.105469-35.066406 60.742187c-4.21875 5.929688-6.703125 13.179688-6.703125 21.015625 0 20.035156 16.238281 36.277344 36.277344 36.277344h93.230468v-.152344c6.113282.003906 12.3125-1.542968 17.992188-4.808594zm0 0" fill="#ff5a5a" data-original="#FF5A5A" class="" style="fill:#333333" data-old_color="#ff5a5a"/></g><path d="m86.015625 197.222656c-13.609375 12.257813-25.925781 26.039063-36.605469 40.960938-3.214844 4.488281-2.183594 10.734375 2.308594 13.949218 1.765625 1.265626 3.800781 1.871094 5.8125 1.871094 3.117188 0 6.1875-1.453125 8.140625-4.179687 9.84375-13.746094 21.191406-26.445313 33.730469-37.742188 4.105468-3.695312 4.4375-10.019531.738281-14.121093-3.695313-4.105469-10.019531-4.4375-14.125-.738282zm0 0" data-original="#000000" class="" data-old_color="#000000" style="fill:#FEE12B"/><path d="m109.984375 178.121094-.324219.234375c-4.445312 3.246093-5.402344 9.457031-2.175781 13.917969 1.949219 2.695312 5.007813 4.125 8.109375 4.125 2.027344 0 4.074219-.613282 5.847656-1.882813l.054688-.039063c4.519531-3.179687 5.601562-9.417968 2.421875-13.933593-3.179688-4.515625-9.414063-5.601563-13.933594-2.421875zm0 0" data-original="#000000" class="" data-old_color="#000000" style="fill:#FEE12B"/><path d="m356.003906 244.003906c0-55.140625-44.859375-100-100.003906-100-36.742188 0-68.917969 19.925782-86.296875 49.53125-.101563.15625-.210937.304688-.304687.46875-.066407.117188-.121094.242188-.183594.359375-8.402344 14.636719-13.214844 31.589844-13.214844 49.640625 0 18.070313 4.816406 35.03125 13.234375 49.675782.058594.109374.105469.21875.164063.320312.0625.105469.136718.199219.203124.300781 8.6875 14.871094 21.105469 27.308594 35.960938 36.019531.144531.09375.285156.195313.4375.285157.078125.042969.160156.074219.242188.117187 14.660156 8.445313 31.65625 13.28125 49.757812 13.28125 55.144531 0 100.003906-44.859375 100.003906-100zm-180.003906 0c0-10.996094 2.234375-21.480468 6.265625-31.027344l17.503906 10.105469c-2.433593 6.519531-3.769531 13.566407-3.769531 20.917969 0 7.355469 1.339844 14.402344 3.769531 20.921875l-17.503906 10.105469c-4.03125-9.542969-6.265625-20.027344-6.265625-31.023438zm80 40c-22.054688 0-40-17.945312-40-40.003906 0-22.054688 17.945312-40 40-40 22.058594 0 40 17.945312 40 40 0 22.058594-17.941406 40.003906-40 40.003906zm-10 19.148438v20.207031c-7.359375-.925781-14.421875-2.828125-21.023438-5.617187l10.105469-17.507813c3.496094 1.304687 7.148438 2.285156 10.917969 2.917969zm10-139.148438c44.113281 0 80.003906 35.886719 80.003906 80 0 40.726563-30.59375 74.414063-70.003906 79.355469v-20.207031c28.339844-4.773438 50-29.472656 50-59.148438 0-33.085937-26.914062-60-60-60-18.566406 0-35.195312 8.480469-46.210938 21.773438l-17.488281-10.097656c14.625-19.230469 37.734375-31.675782 63.699219-31.675782zm-63.703125 128.324219 17.492187-10.097656c2.40625 2.902343 5.082032 5.574219 7.984376 7.980469l-10.097657 17.492187c-5.796875-4.40625-10.96875-9.582031-15.378906-15.375zm0 0" data-original="#000000" class="" data-old_color="#000000" style="fill:#FEE12B"/><path d="m256 52.804688c5.523438 0 10-4.480469 10-10v-32.804688c0-5.523438-4.476562-10-10-10s-10 4.476562-10 10v32.804688c0 5.519531 4.476562 10 10 10zm0 0" data-original="#000000" class="" data-old_color="#000000" style="fill:#FEE12B"/><path d="m351.597656 78.421875c1.578125.90625 3.296875 1.339844 4.992188 1.339844 3.457031 0 6.816406-1.792969 8.667968-5l16.402344-28.410157c2.761719-4.785156 1.125-10.902343-3.660156-13.660156-4.78125-2.761718-10.894531-1.125-13.660156 3.660156l-16.398438 28.410157c-2.765625 4.78125-1.125 10.898437 3.65625 13.660156zm0 0" data-original="#000000" class="" data-old_color="#000000" style="fill:#FEE12B"/><path d="m146.738281 74.757812c1.851563 3.210938 5.214844 5.003907 8.671875 5.003907 1.695313 0 3.414063-.433594 4.988282-1.339844 4.785156-2.761719 6.421874-8.878906 3.660156-13.660156l-16.398438-28.410157c-2.761718-4.785156-8.878906-6.421874-13.660156-3.664062-4.78125 2.761719-6.421875 8.878906-3.660156 13.660156zm0 0" data-original="#000000" class="" data-old_color="#000000" style="fill:#FEE12B"/><path d="m392.171875 442.960938c-5.519531 0-10 4.476562-10 10v.476562c0 5.523438 4.480469 10 10 10 5.523437 0 10-4.476562 10-10v-.476562c0-5.523438-4.476563-10-10-10zm0 0" data-original="#000000" class="" data-old_color="#000000" style="fill:#FEE12B"/><path d="m392.171875 360.566406c-5.519531 0-10 4.476563-10 10v53.3125c0 5.519532 4.480469 10 10 10 5.523437 0 10-4.480468 10-10v-53.3125c0-5.523437-4.476563-10-10-10zm0 0" data-original="#000000" class="" data-old_color="#000000" style="fill:#FEE12B"/><path d="m470.183594 380.949219-.988282-1.847657-28.105468-48.691406c28.070312-22.75 51.453125-50.089844 69.566406-81.398437 1.792969-3.097657 1.792969-6.917969 0-10.015625-25.386719-43.886719-61.894531-80.691406-105.574219-106.441406-45.003906-26.53125-96.554687-40.554688-149.082031-40.554688-52.523438 0-104.078125 14.023438-149.082031 40.554688-43.679688 25.75-80.1875 62.554687-105.574219 106.441406-1.792969 3.097656-1.792969 6.917968 0 10.015625 25.386719 43.886719 61.894531 80.691406 105.574219 106.441406 45.003906 26.527344 96.554687 40.554687 149.082031 40.554687 17.59375 0 35.105469-1.566406 52.304688-4.652343l-27.691407 47.964843c-5.410156 7.773438-8.269531 16.894532-8.269531 26.402344 0 25.519532 20.761719 46.277344 46.277344 46.277344h157.253906v-1.25c4.535156-1.011719 8.917969-2.707031 12.976562-5.039062 22.050782-12.667969 29.683594-40.914063 17-62.980469zm-448.558594-136.945313c49.542969-81.574218 138.804688-132.003906 234.375-132.003906s184.835938 50.433594 234.375 132.003906c-15.902344 26.210938-35.863281 49.324219-59.472656 68.894532-3.933594-6.011719-9.242188-11.042969-15.507813-14.675782-7.027343-4.066406-15.019531-6.21875-23.109375-6.21875-16.445312 0-31.773437 8.828125-40.011718 23.050782l-30.617188 53.027343c-21.378906 5.257813-43.445312 7.921875-65.65625 7.921875-95.570312 0-184.832031-50.429687-234.375-132zm457.265625 244.367188c-3.960937 2.273437-8.453125 3.476562-13.007813 3.476562l-10.003906-.007812v.160156h-137.257812c-14.488282 0-26.277344-11.789062-26.277344-26.277344 0-5.496094 1.679688-10.757812 4.855469-15.214844l.273437-.386718 35.230469-61.027344 5.425781-8.886719-.285156-.160156 31.746094-54.980469c4.664062-8.058594 13.363281-13.0625 22.699218-13.0625 4.574219 0 9.097657 1.21875 13.085938 3.527344 4.070312 2.359375 7.429688 5.761719 9.714844 9.839844l36.550781 63.3125.992187 1.851562 35.890626 62.175782c7.175781 12.488281 2.855468 28.484374-9.632813 35.660156zm0 0" data-original="#000000" class="" data-old_color="#000000" style="fill:#FEE12B"/></g> </svg>
